#!OML:ASF I:\Actors\actors\Patient Classification 1\Patient 1\Session 1\Subject1.ASF
:FULLY-SPECIFIED
:DEGREES
1016
root -1.77794 17.6761 7.67359 10.2561 -0.372256 -11.2771
lowerback 16.6776 -1.93714 0.767999
upperback -1.62628 -3.15654 -6.40435
thorax -11.6646 -1.81145 -6.72526
lowerneck -9.8528 9.20617 8.04688
upperneck 23.0383 11.1161 0.889289
head 9.29679 5.93775 0.222381
rclavicle -1.51076e-014 -4.77083e-014
rhumerus -79.3318 41.8349 -95.7298
rradius 122.94
rwrist -34.756
rhand 21.0404 -66.3416
rfingers 7.12502
rthumb 45.5031 -449.64
lclavicle -1.51076e-014 -4.77083e-014
lhumerus -38.1497 -44.5855 92.4125
lradius 91.8439
lwrist 89.116
lhand -42.0468 17.2211
lfingers 7.12502
lthumb -14.9402 46.6623
rfemur -7.4535 16.2762 33.251
rtibia 6.46981
rfoot -11.9154 -12.9993
rtoes 1.20073
lfemur 0.184511 -34.9755 -1.77987
ltibia -2.25315
lfoot -19.1114 46.2752
ltoes 5.29354
1017
root -1.81831 17.6818 7.63519 10.3326 -0.320483 -11.4614
lowerback 17.7113 -1.79904 0.291772
upperback -1.27146 -3.10868 -6.64301
thorax -11.8462 -1.76272 -6.72567
lowerneck -9.98742 9.25595 8.03945
upperneck 22.3619 11.1325 1.03116
head 9.07722 5.95351 0.259231
rclavicle -7.15625e-015 -9.54166e-015
rhumerus -79.8319 41.5971 -96.4955
rradius 123.256
rwrist -35.1438
rhand 20.917 -66.1223
rfingers 7.12502
rthumb 45.3883 -449.467
lclavicle -7.15625e-015 -9.54166e-015
lhumerus -37.1848 -44.5972 91.4389
lradius 91.9864
lwrist 88.9344
lhand -42.1522 16.5288
lfingers 7.12502
lthumb -15.0417 45.9624
rfemur -7.59676 15.8647 33.5433
rtibia 6.28315
rfoot -11.7273 -12.5539
rtoes 1.49323
lfemur -0.448039 -33.9689 -1.00209
ltibia -1.95659
lfoot -18.1886 45.4207
ltoes 4.6503
1018
root -1.86 17.6841 7.59208 10.564 -0.0717848 -11.6062
lowerback 18.649 -1.6938 -0.291636
upperback -0.897827 -3.12613 -6.82194
thorax -11.9446 -1.73305 -6.57738
lowerneck -10.1956 9.31345 7.90744
upperneck 21.5705 11.1617 1.2461
head 8.82056 5.97134 0.339705
rclavicle 1.59028e-015 9.54166e-014
rhumerus -80.2018 41.3804 -97.1547
rradius 123.565
rwrist -35.2558
rhand 20.8679 -65.985
rfingers 7.12502
rthumb 45.3427 -449.348
lclavicle 1.59028e-015 9.54166e-014
lhumerus -36.0956 -44.5624 90.4709
lradius 92.1472
lwrist 88.9294
lhand -42.2212 16.6845
lfingers 7.12502
lthumb -15.1083 46.1131
rfemur -8.01768 15.4786 33.7582
rtibia 6.23745
rfoot -11.5424 -12.2778
rtoes 1.44714
lfemur -1.50401 -32.9015 -0.0384337
ltibia -1.52604
lfoot -17.0206 44.4586
ltoes 3.46471
1019
root -1.89916 17.6877 7.54815 10.8721 0.274119 -11.7258
lowerback 19.5633 -1.58319 -0.897867
upperback -0.492027 -3.14533 -6.97602
thorax -11.9857 -1.70075 -6.38648
lowerneck -10.4864 9.34972 7.72551
upperneck 20.7044 11.1714 1.4403
head 8.55259 5.97318 0.419253
rclavicle -2.38542e-014 -1.27222e-014
rhumerus -80.423 41.0736 -97.7031
rradius 123.854
rwrist -35.2696
rhand 20.9803 -66.0831
rfingers 7.12502
rthumb 45.4472 -449.404
lclavicle -2.38542e-014 -1.27222e-014
lhumerus -34.9223 -44.6545 89.5366
lradius 92.2484
lwrist 89.0705
lhand -42.0886 16.4412
lfingers 7.12502
lthumb -14.9805 45.8794
rfemur -8.58946 15.0879 33.9184
rtibia 6.26977
rfoot -11.3053 -12.0664
rtoes 1.13868
lfemur -2.7979 -31.7917 0.96732
ltibia -0.947495
lfoot -15.6841 43.4411
ltoes 1.81533
1020
root -1.93487 17.6953 7.50512 11.26 0.747637 -11.9553
lowerback 20.5326 -1.51336 -1.30428
upperback -0.123038 -3.18712 -7.12783
thorax -12.1098 -1.69422 -6.30588
lowerneck -10.8858 9.35403 7.61835
upperneck 19.9557 11.1173 1.63649
head 8.34938 5.95121 0.489661
rclavicle -6.36111e-015 1.90833e-014
rhumerus -80.6091 40.6202 -98.3889
rradius 124.078
rwrist -35.2905
rhand 20.8876 -66.026
rfingers 7.12502
rthumb 45.3611 -449.382
lclavicle -6.36111e-015 1.90833e-014
lhumerus -33.7199 -44.9066 88.5128
lradius 92.292
lwrist 89.2794
lhand -41.5885 15.9807
lfingers 7.12502
lthumb -14.4987 45.4541
rfemur -9.25907 14.7726 34.1815
rtibia 6.28543
rfoot -11.0366 -12.0144
rtoes 1.0292
lfemur -4.25749 -30.7292 2.16036
ltibia -0.336253
lfoot -14.5541 42.3805
ltoes 0.659381
1021
root -1.96637 17.7024 7.46588 11.7804 1.34997 -12.3056
lowerback 21.3213 -1.53535 -1.65155
upperback 0.24846 -3.31581 -7.15759
thorax -12.1262 -1.72513 -6.08912
lowerneck -11.1868 9.41597 7.52766
upperneck 19.099 11.1805 1.68891
head 8.10632 5.97078 0.51539
rclavicle 3.33958e-014 -1.17681e-013
rhumerus -80.7238 40.4729 -99.2683
rradius 124.247
rwrist -35.6822
rhand 19.5201 -65.7497
rfingers 7.12502
rthumb 44.0878 -449.6
lclavicle 3.33958e-014 -1.17681e-013
lhumerus -32.386 -44.9196 87.4165
lradius 92.1339
lwrist 89.164
lhand -41.4244 15.884
lfingers 7.12502
lthumb -14.3406 45.3687
rfemur -10.0247 14.5216 34.5484
rtibia 6.22086
rfoot -10.8115 -12.0663
rtoes 1.70084
lfemur -5.81901 -29.8853 3.53399
ltibia 0.182008
lfoot -13.4593 41.4594
ltoes -0.529629
1022
root -1.99422 17.71 7.42584 12.414 2.03059 -12.6874
lowerback 21.9512 -1.63264 -2.17141
upperback 0.636514 -3.55528 -7.01049
thorax -12.0141 -1.78805 -5.52815
lowerneck -11.2434 9.57373 7.52174
upperneck 17.9796 11.4468 1.40185
head 7.76562 6.05889 0.421396
rclavicle -2.70347e-014 2.22639e-014
rhumerus -80.6716 40.8713 -100.379
rradius 124.327
rwrist -36.6846
rhand 16.3134 -65.2031
rfingers 7.12502
rthumb 41.0864 -269.908
lclavicle -2.70347e-014 2.22639e-014
lhumerus -30.8032 -44.4237 86.2391
lradius 91.6381
lwrist 88.6157
lhand -41.2652 14.8426
lfingers 7.12502
lthumb -14.1872 44.3382
rfemur -10.9467 14.1919 34.9212
rtibia 6.16608
rfoot -10.582 -12.0616
rtoes 2.39979
lfemur -7.48276 -29.1829 4.99516
ltibia 0.628554
lfoot -12.0571 40.6509
ltoes -2.49
1023
root -2.01882 17.7191 7.37881 13.2019 2.8207 -13.1258
lowerback 22.8814 -1.7044 -1.98695
upperback 0.7741 -3.66751 -7.16367
thorax -12.4122 -1.85547 -5.77498
lowerneck -11.2596 9.48143 7.6846
upperneck 17.0518 11.2815 1.44297
head 7.46466 5.98726 0.36399
rclavicle -4.77083e-015 6.04305e-014
rhumerus -79.8657 40.2555 -101.072
rradius 124.014
rwrist -35.175
rhand 18.1984 -65.1108
rfingers 7.12502
rthumb 42.8532 -449.408
lclavicle -4.77083e-015 6.04305e-014
lhumerus -29.4144 -44.6911 84.9727
lradius 90.9111
lwrist 88.2778
lhand -40.6727 11.7585
lfingers 7.12502
lthumb -13.6162 41.2932
rfemur -12.1492 13.8404 35.3006
rtibia 6.16429
rfoot -10.2873 -12.0593
rtoes 2.6491
lfemur -9.44756 -28.5547 6.7031
ltibia 1.10132
lfoot -10.8718 39.8709
ltoes -3.98478
1024
root -2.03564 17.7248 7.33723 14.1143 3.58847 -13.6367
lowerback 23.1971 -1.79826 -2.35902
upperback 1.11269 -3.83538 -6.88206
thorax -12.1621 -1.8891 -5.16448
lowerneck -11.2765 9.56095 7.6911
upperneck 15.9195 11.4616 1.02216
head 7.12558 6.02535 0.21544
rclavicle -2.70347e-014 -8.5875e-014
rhumerus -78.2657 40.8987 -101.475
rradius 123.587
rwrist -34.432
rhand 18.1693 -64.6644
rfingers 7.12502
rthumb 42.826 -448.972
lclavicle -2.70347e-014 -8.5875e-014
lhumerus -26.9797 -43.6832 83.458
lradius 89.128
lwrist 87.1998
lhand -40.6289 13.1477
lfingers 7.12502
lthumb -13.574 42.6852
rfemur -13.4401 13.5034 35.7114
rtibia 6.10096
rfoot -10.0022 -11.9045
rtoes 3.03473
lfemur -11.3608 -28.5533 8.50734
ltibia 1.36988
lfoot -10.6532 39.7689
ltoes -3.8684
1025
root -2.0448 17.7273 7.30195 15.0672 4.28274 -14.1428
lowerback 23.779 -1.80294 -2.0209
upperback 1.19718 -3.79402 -6.98803
thorax -12.4155 -1.89268 -5.49631
lowerneck -11.2965 9.3365 7.84259
upperneck 15.0427 11.1347 0.986044
head 6.84451 5.86727 0.121883
rclavicle -7.95139e-015 9.54166e-015
rhumerus -76.7538 40.5917 -102.724
rradius 122.938
rwrist -33.888
rhand 17.2026 -64.2212
rfingers 7.12502
rthumb 41.9207 -448.838
lclavicle -7.95139e-015 9.54166e-015
lhumerus -24.5622 -43.1271 81.9019
lradius 86.5622
lwrist 86.8172
lhand -39.8736 12.7482
lfingers 7.12502
lthumb -12.8459 42.3329
rfemur -14.6811 13.1219 36.1045
rtibia 5.94072
rfoot -9.70821 -11.5536
rtoes 3.75672
lfemur -13.0484 -29.0873 10.2665
ltibia 1.29936
lfoot -10.6649 40.3431
ltoes -3.67334
